<svg width="55" height="56" viewBox="0 0 55 56" fill="none" xmlns="http://www.w3.org/2000/svg">
<path d="M53.5154 50.8531H45.3632C45.533 50.5983 45.618 50.2587 45.7029 49.919L48.3354 30.8971C48.4203 30.0479 48.1655 29.1138 47.656 28.4344C47.0616 27.7551 46.2124 27.4154 45.3632 27.4154H9.52731C8.67812 27.4154 7.82893 27.84 7.23449 28.4344C6.64006 29.1138 6.3853 29.963 6.55514 30.8971L9.18763 49.919C9.27255 50.2587 9.35747 50.5983 9.52731 50.8531H1.37507C0.865556 50.8531 0.525879 51.2777 0.525879 51.7023V55.0991C0.525879 55.5237 0.865556 55.9482 1.37507 55.9482H53.5154C53.94 55.9482 54.3646 55.5237 54.3646 55.0991V51.7023C54.3646 51.1928 53.94 50.8531 53.5154 50.8531ZM27.4453 43.55C24.8977 43.55 22.9445 41.9366 22.9445 39.9834C22.9445 38.0303 24.9826 36.4168 27.4453 36.4168C29.9079 36.4168 31.946 38.0303 31.946 39.9834C31.946 41.9366 29.9079 43.55 27.4453 43.55Z" fill="#0077B6"/>
<path d="M35.2576 20.5373C35.0029 20.4524 34.6632 20.5373 34.4084 20.7071C32.5402 22.4904 29.9926 23.4245 27.4451 23.4245C24.8975 23.4245 22.3499 22.4904 20.4817 20.7071C20.2269 20.5373 19.8873 20.4524 19.6325 20.5373C16.4905 21.6412 13.5183 23.4245 11.0557 25.7173H43.8345C41.3718 23.4245 38.4846 21.6412 35.2576 20.5373Z" fill="#0077B6"/>
<path d="M27.4453 20.2822C32.9326 20.2822 37.3809 15.8339 37.3809 10.3467C37.3809 4.85943 32.9326 0.411133 27.4453 0.411133C21.9581 0.411133 17.5098 4.85943 17.5098 10.3467C17.5098 15.8339 21.9581 20.2822 27.4453 20.2822Z" fill="#0077B6"/>
</svg>
